# xmcd
#
# Track frame offsets:
#	150
#	12456
#	27067
#	40558
#	53940
#	67426
#	80442
#	94584
#	108934
#	123700
#	135365
#	147456
#	163009
#	175033
#	186835
#	200538
#	210831
#	221743
#	235975
#	250973
#	263863
#	280159
#	289782
#
# Disc length: 4021 seconds
#
# Revision: 0
# Processed by: cddbd v1.5.2PL0 Copyright (c) Steve Scherf et al.
# Submitted via: dBpowerAMP V4.0
#
DISCID=550fb317
DTITLE=лаяимекка - та коциа еимаи пеяитта CD2
DYEAR=2007
DGENRE=Acapella
TTITLE0=пуяетос
TTITLE1=йоита ле ста латиа
TTITLE2=емам йаияо
TTITLE3=аспяо лоу яодо
TTITLE4=еягло поуки
TTITLE5=айоусте
TTITLE6=оуте латиа дайяуслема
TTITLE7=23 апяикгдес
TTITLE8=йи ецы де ликгса
TTITLE9=де сулжымгсале
TTITLE10=то петсимо сайайи
TTITLE11=сулбибафоласте
TTITLE12=йаи тыяа...
TTITLE13=дем пеияафеи,де баяиесаи
TTITLE14=тгм ыяа поу сталатгсе г бяовг
TTITLE15=то ламтако
TTITLE16=тг бяадиа лоу апоье
TTITLE17=вхес аяца
TTITLE18=ле пмицеи тоутг г сиыпг
TTITLE19=лауяомтулемос еим'апоье о оуяамос
TTITLE20=о ежедяос
TTITLE21=лама ха тоус пеяилемеи
TTITLE22=лама лоу йяуье то спахи
EXTD=
EXTT0=
EXTT1=
EXTT2=
EXTT3=
EXTT4=
EXTT5=
EXTT6=
EXTT7=
EXTT8=
EXTT9=
EXTT10=
EXTT11=
EXTT12=
EXTT13=
EXTT14=
EXTT15=
EXTT16=
EXTT17=
EXTT18=
EXTT19=
EXTT20=
EXTT21=
EXTT22=
PLAYORDER=
